# xmcd CD database file
#
# Track frame offsets:
#	150
#	14867
#	26812
#	39662
#	56630
#	69732
#	81727
#	99667
#	118007
#	137540
#	151477
#	164600
#	182020
#	197827
#	209605
#	224990
#	244037
#	258697
#	272572
#	291457
#
# Disc length: 4060 seconds
#
# Revision: 1
# Processed by: cddbd v1.5.2PL0 Copyright (c) Steve Scherf et al.
# Submitted via: CDex 1.70beta2
#
DISCID=500fda14
DTITLE=Compilation divers - Music form Texas
DYEAR=1998
DGENRE=Country
TTITLE0=Candee Land - Strength of my
TTITLE1=Curtis Wayne, Aaron Baker - Love bug
TTITLE2=Dale McBird - High cost of livin'
TTITLE3=Rosilee - If you see me rockin'
TTITLE4=3X Country - Meanwhile
TTITLE5=Rusty Doherty - Going out of my mind
TTITLE6=Matters of the heart - Love 101
TTITLE7=Harold Dean - Yesterday hero
TTITLE8=Wes Wiginton - Life is like a rock
TTITLE9=Candee Land - Lying in your arms
TTITLE10=Shawn DeLorne - this table is gonna turn
TTITLE11=Matters of the heart - Bright lights
TTITLE12=C. Wayne, A. Barker - Easy come easy go
TTITLE13=Bobby Lloyd - Beauty lies in the eyes
TTITLE14=Celeste - Crasy
TTITLE15=Matters of the Herat - Backed in a corner
TTITLE16=Larry Butler - Only the dead are free
TTITLE17=Rosilee - I wish it would rain
TTITLE18=Matters of the Herat - Hey baby
TTITLE19=3X Country - Rockin' country
EXTD=YEAR: 1998
EXTT0=
EXTT1=
EXTT2=
EXTT3=
EXTT4=
EXTT5=
EXTT6=
EXTT7=
EXTT8=
EXTT9=
EXTT10=
EXTT11=
EXTT12=
EXTT13=
EXTT14=
EXTT15=
EXTT16=
EXTT17=
EXTT18=
EXTT19=
PLAYORDER=
